<?xml version="1.0" encoding="UTF-8" standalone="no"?>
<!DOCTYPE svg PUBLIC "-//W3C//DTD SVG 1.1//EN" "http://www.w3.org/Graphics/SVG/1.1/DTD/svg11.dtd">
<!-- Generated by graphviz version 2.40.1 (20161225.0304)
 -->
<!-- Title: canonical Pages: 1 -->
<svg width="1180pt" height="417pt" viewBox="0.00 0.00 1179.74 416.80" xmlns="http://www.w3.org/2000/svg" xmlns:xlink="http://www.w3.org/1999/xlink">
<g id="graph0" class="graph" transform="scale(1 1) rotate(0) translate(4 412.8)">
<title>canonical</title>
<polygon fill="#ffffff" stroke="transparent" points="-4,4 -4,-412.8 1175.7434,-412.8 1175.7434,4 -4,4"/>
<g id="clust1" class="cluster">
<title>clusterLegend</title>
<polygon fill="none" stroke="#000000" points="8,-8 8,-400.8 554,-400.8 554,-8 8,-8"/>
<text text-anchor="middle" x="281" y="-384.2" font-family="Times,serif" font-size="14.00" fill="#000000">Legend</text>
</g>
<!-- legendNode0 -->
<g id="node1" class="node">
<title>legendNode0</title>
<polygon fill="none" stroke="#000000" points="295.3754,-332.0493 298.2723,-332.1479 301.1392,-332.2953 303.9645,-332.4913 306.7366,-332.7353 309.4445,-333.0266 312.0775,-333.3645 314.6254,-333.7479 317.0784,-334.1759 319.4275,-334.6472 321.6642,-335.1606 323.7806,-335.7147 325.7698,-336.308 327.6255,-336.9388 329.3422,-337.6054 330.915,-338.3059 332.3403,-339.0385 333.6148,-339.8012 334.7364,-340.5918 335.7036,-341.4082 336.5158,-342.2481 337.1732,-343.1093 337.6766,-343.9894 338.0277,-344.886 338.2289,-345.7965 338.283,-346.7186 338.1936,-347.6497 337.9649,-348.5873 337.6014,-349.5287 337.1081,-350.4713 336.4905,-351.4127 335.7542,-352.3503 334.9053,-353.2814 333.95,-354.2035 332.8945,-355.114 331.7452,-356.0106 330.5086,-356.8907 329.1911,-357.7519 327.799,-358.5918 326.3386,-359.4082 324.8157,-360.1988 323.2363,-360.9615 321.606,-361.6941 319.93,-362.3946 318.2134,-363.0612 316.4608,-363.692 314.6767,-364.2853 312.8651,-364.8394 311.0297,-365.3528 309.1739,-365.8241 307.3007,-366.2521 305.413,-366.6355 303.5131,-366.9734 301.6033,-367.2647 299.6856,-367.5087 297.7616,-367.7047 295.8329,-367.8521 293.901,-367.9507 291.9672,-368 290.0328,-368 288.099,-367.9507 286.1671,-367.8521 284.2384,-367.7047 282.3144,-367.5087 280.3967,-367.2647 278.4869,-366.9734 276.587,-366.6355 274.6993,-366.2521 272.8261,-365.8241 270.9703,-365.3528 269.1349,-364.8394 267.3233,-364.2853 265.5392,-363.692 263.7866,-363.0612 262.07,-362.3946 260.394,-361.6941 258.7637,-360.9615 257.1843,-360.1988 255.6614,-359.4082 254.201,-358.5918 252.8089,-357.7519 251.4914,-356.8907 250.2548,-356.0106 249.1055,-355.114 248.05,-354.2035 247.0947,-353.2814 246.2458,-352.3503 245.5095,-351.4127 244.8919,-350.4713 244.3986,-349.5287 244.0351,-348.5873 243.8064,-347.6497 243.717,-346.7186 243.7711,-345.7965 243.9723,-344.886 244.3234,-343.9894 244.8268,-343.1093 245.4842,-342.2481 246.2964,-341.4082 247.2636,-340.5918 248.3852,-339.8012 249.6597,-339.0385 251.085,-338.3059 252.6578,-337.6054 254.3745,-336.9388 256.2302,-336.308 258.2194,-335.7147 260.3358,-335.1606 262.5725,-334.6472 264.9216,-334.1759 267.3746,-333.7479 269.9225,-333.3645 272.5555,-333.0266 275.2634,-332.7353 278.0355,-332.4913 280.8608,-332.2953 283.7277,-332.1479 286.6246,-332.0493 289.5395,-332 292.4605,-332 295.3754,-332.0493"/>
<text text-anchor="middle" x="291" y="-346.4" font-family="Times,serif" font-size="12.00" fill="#000000">Executable</text>
</g>
<!-- legendNode1 -->
<g id="node2" class="node">
<title>legendNode1</title>
<polygon fill="none" stroke="#000000" points="129.8069,-180.5442 129.8069,-195.4558 96.5302,-206 49.4698,-206 16.1931,-195.4558 16.1931,-180.5442 49.4698,-170 96.5302,-170 129.8069,-180.5442"/>
<text text-anchor="middle" x="73" y="-184.4" font-family="Times,serif" font-size="12.00" fill="#000000">Static Library</text>
</g>
<!-- legendNode0&#45;&gt;legendNode1 -->
<g id="edge1" class="edge">
<title>legendNode0-&gt;legendNode1</title>
<path fill="none" stroke="#000000" d="M268.4913,-333.2733C229.6554,-304.4136 149.9365,-245.173 105.2264,-211.948"/>
<polygon fill="#000000" stroke="#000000" points="107.1524,-209.0188 97.0384,-205.8634 102.9772,-214.6373 107.1524,-209.0188"/>
</g>
<!-- legendNode2 -->
<g id="node3" class="node">
<title>legendNode2</title>
<polygon fill="none" stroke="#000000" points="274.0867,-180.5442 274.0867,-195.4558 238.3029,-206 187.6971,-206 151.9133,-195.4558 151.9133,-180.5442 187.6971,-170 238.3029,-170 274.0867,-180.5442"/>
<polygon fill="none" stroke="#000000" points="278.0894,-177.5534 278.0894,-198.4466 238.8808,-210 187.1192,-210 147.9106,-198.4466 147.9106,-177.5534 187.1192,-166 238.8808,-166 278.0894,-177.5534"/>
<text text-anchor="middle" x="213" y="-184.4" font-family="Times,serif" font-size="12.00" fill="#000000">Shared Library</text>
</g>
<!-- legendNode0&#45;&gt;legendNode2 -->
<g id="edge2" class="edge">
<title>legendNode0-&gt;legendNode2</title>
<path fill="none" stroke="#000000" d="M282.3546,-332.0442C269.2861,-304.9018 244.317,-253.0429 228.1753,-219.5179"/>
<polygon fill="#000000" stroke="#000000" points="231.1648,-217.6589 223.6731,-210.1672 224.8578,-220.6956 231.1648,-217.6589"/>
</g>
<!-- legendNode3 -->
<g id="node4" class="node">
<title>legendNode3</title>
<polygon fill="none" stroke="#000000" points="431.6536,-180.5442 431.6536,-195.4558 394.3662,-206 341.6338,-206 304.3464,-195.4558 304.3464,-180.5442 341.6338,-170 394.3662,-170 431.6536,-180.5442"/>
<polygon fill="none" stroke="#000000" points="435.6434,-177.5163 435.6434,-198.4837 394.9181,-210 341.0819,-210 300.3566,-198.4837 300.3566,-177.5163 341.0819,-166 394.9181,-166 435.6434,-177.5163"/>
<polygon fill="none" stroke="#000000" points="439.6332,-174.4885 439.6332,-201.5115 395.47,-214 340.53,-214 296.3668,-201.5115 296.3668,-174.4885 340.53,-162 395.47,-162 439.6332,-174.4885"/>
<text text-anchor="middle" x="368" y="-184.4" font-family="Times,serif" font-size="12.00" fill="#000000">Module Library</text>
</g>
<!-- legendNode0&#45;&gt;legendNode3 -->
<!-- legendNode7 -->
<g id="node8" class="node">
<title>legendNode7</title>
<polygon fill="none" stroke="#000000" points="545.6539,-206 458.3461,-206 458.3461,-170 545.6539,-170 545.6539,-206"/>
<text text-anchor="middle" x="502" y="-184.4" font-family="Times,serif" font-size="12.00" fill="#000000">Custom Target</text>
</g>
<!-- legendNode0&#45;&gt;legendNode7 -->
<!-- legendNode4 -->
<g id="node5" class="node">
<title>legendNode4</title>
<polygon fill="none" stroke="#000000" points="170.119,-39.5623 93,-52 15.881,-39.5623 45.3378,-19.4377 140.6622,-19.4377 170.119,-39.5623"/>
<text text-anchor="middle" x="93" y="-30.4" font-family="Times,serif" font-size="12.00" fill="#000000">Interface Library</text>
</g>
<!-- legendNode1&#45;&gt;legendNode4 -->
<g id="edge4" class="edge">
<title>legendNode1-&gt;legendNode4</title>
<path fill="none" stroke="#000000" stroke-dasharray="5,2" d="M75.3728,-169.7294C78.8345,-143.0742 85.2985,-93.3015 89.3632,-62.0034"/>
<polygon fill="#000000" stroke="#000000" points="92.8749,-62.139 90.692,-51.7715 85.9332,-61.2374 92.8749,-62.139"/>
<text text-anchor="middle" x="110.8654" y="-102.8" font-family="Times,serif" font-size="14.00" fill="#000000">Interface</text>
</g>
<!-- legendNode5 -->
<g id="node6" class="node">
<title>legendNode5</title>
<polygon fill="none" stroke="#000000" points="316.2793,-34 284.1396,-52 219.8604,-52 187.7207,-34 219.8604,-16 284.1396,-16 316.2793,-34"/>
<text text-anchor="middle" x="252" y="-30.4" font-family="Times,serif" font-size="12.00" fill="#000000">Object Library</text>
</g>
<!-- legendNode2&#45;&gt;legendNode5 -->
<g id="edge5" class="edge">
<title>legendNode2-&gt;legendNode5</title>
<path fill="none" stroke="#000000" stroke-dasharray="1,5" d="M218.5877,-165.9356C225.5212,-138.5575 237.3508,-91.8454 244.9146,-61.9781"/>
<polygon fill="#000000" stroke="#000000" points="248.335,-62.7288 247.3971,-52.1755 241.5492,-61.0102 248.335,-62.7288"/>
<text text-anchor="middle" x="257.8268" y="-102.8" font-family="Times,serif" font-size="14.00" fill="#000000">Private</text>
</g>
<!-- legendNode6 -->
<g id="node7" class="node">
<title>legendNode6</title>
<polygon fill="none" stroke="#000000" points="479.5523,-29.9946 465.1825,-45.2228 407,-52 348.8175,-45.2228 334.4477,-29.9946 374.7112,-17.7826 439.2888,-17.7826 479.5523,-29.9946"/>
<text text-anchor="middle" x="407" y="-30.4" font-family="Times,serif" font-size="12.00" fill="#000000">Unknown Library</text>
</g>
<!-- legendNode3&#45;&gt;legendNode6 -->
<g id="edge6" class="edge">
<title>legendNode3-&gt;legendNode6</title>
<path fill="none" stroke="#000000" d="M374.6158,-161.876C381.6998,-133.9032 392.89,-89.7163 400.0866,-61.2992"/>
<polygon fill="#000000" stroke="#000000" points="403.4801,-62.1557 402.5422,-51.6024 396.6943,-60.4372 403.4801,-62.1557"/>
</g>
<!-- node0 -->
<g id="node9" class="node">
<title>node0</title>
<polygon fill="none" stroke="#000000" points="615.4918,-332.0493 618.4658,-332.1479 621.409,-332.2953 624.3095,-332.4913 627.1554,-332.7353 629.9354,-333.0266 632.6385,-333.3645 635.2542,-333.7479 637.7725,-334.1759 640.1841,-334.6472 642.4802,-335.1606 644.653,-335.7147 646.6952,-336.308 648.6003,-336.9388 650.3626,-337.6054 651.9773,-338.3059 653.4405,-339.0385 654.7489,-339.8012 655.9004,-340.5918 656.8933,-341.4082 657.7271,-342.2481 658.402,-343.1093 658.9188,-343.9894 659.2793,-344.886 659.4858,-345.7965 659.5414,-346.7186 659.4496,-347.6497 659.2148,-348.5873 658.8416,-349.5287 658.3352,-350.4713 657.7012,-351.4127 656.9453,-352.3503 656.0738,-353.2814 655.093,-354.2035 654.0094,-355.114 652.8296,-356.0106 651.5601,-356.8907 650.2075,-357.7519 648.7784,-358.5918 647.2791,-359.4082 645.7157,-360.1988 644.0943,-360.9615 642.4205,-361.6941 640.6999,-362.3946 638.9376,-363.0612 637.1384,-363.692 635.3068,-364.2853 633.447,-364.8394 631.5628,-365.3528 629.6576,-365.8241 627.7346,-366.2521 625.7966,-366.6355 623.8462,-366.9734 621.8855,-367.2647 619.9167,-367.5087 617.9415,-367.7047 615.9615,-367.8521 613.9782,-367.9507 611.9929,-368 610.0071,-368 608.0218,-367.9507 606.0385,-367.8521 604.0585,-367.7047 602.0833,-367.5087 600.1145,-367.2647 598.1538,-366.9734 596.2034,-366.6355 594.2654,-366.2521 592.3424,-365.8241 590.4372,-365.3528 588.553,-364.8394 586.6932,-364.2853 584.8616,-363.692 583.0624,-363.0612 581.3001,-362.3946 579.5795,-361.6941 577.9057,-360.9615 576.2843,-360.1988 574.7209,-359.4082 573.2216,-358.5918 571.7925,-357.7519 570.4399,-356.8907 569.1704,-356.0106 567.9906,-355.114 566.907,-354.2035 565.9262,-353.2814 565.0547,-352.3503 564.2988,-351.4127 563.6648,-350.4713 563.1584,-349.5287 562.7852,-348.5873 562.5504,-347.6497 562.4586,-346.7186 562.5142,-345.7965 562.7207,-344.886 563.0812,-343.9894 563.598,-343.1093 564.2729,-342.2481 565.1067,-341.4082 566.0996,-340.5918 567.2511,-339.8012 568.5595,-339.0385 570.0227,-338.3059 571.6374,-337.6054 573.3997,-336.9388 575.3048,-336.308 577.347,-335.7147 579.5198,-335.1606 581.8159,-334.6472 584.2275,-334.1759 586.7458,-333.7479 589.3615,-333.3645 592.0646,-333.0266 594.8446,-332.7353 597.6905,-332.4913 600.591,-332.2953 603.5342,-332.1479 606.5082,-332.0493 609.5007,-332 612.4993,-332 615.4918,-332.0493"/>
<text text-anchor="middle" x="611" y="-346.4" font-family="Times,serif" font-size="12.00" fill="#000000">git_commit</text>
</g>
<!-- node1 -->
<g id="node10" class="node">
<title>node1</title>
<polygon fill="none" stroke="#000000" points="730.49,-332.0493 733.4628,-332.1479 736.4048,-332.2953 739.3041,-332.4913 742.1489,-332.7353 744.9278,-333.0266 747.6298,-333.3645 750.2444,-333.7479 752.7617,-334.1759 755.1723,-334.6472 757.4675,-335.1606 759.6394,-335.7147 761.6808,-336.308 763.5851,-336.9388 765.3467,-337.6054 766.9608,-338.3059 768.4233,-339.0385 769.7313,-339.8012 770.8822,-340.5918 771.8748,-341.4082 772.7083,-342.2481 773.3829,-343.1093 773.8995,-343.9894 774.2598,-344.886 774.4662,-345.7965 774.5218,-346.7186 774.4301,-347.6497 774.1953,-348.5873 773.8223,-349.5287 773.3161,-350.4713 772.6823,-351.4127 771.9268,-352.3503 771.0556,-353.2814 770.0752,-354.2035 768.9921,-355.114 767.8127,-356.0106 766.5437,-356.8907 765.1917,-357.7519 763.7631,-358.5918 762.2644,-359.4082 760.7017,-360.1988 759.0809,-360.9615 757.4078,-361.6941 755.6879,-362.3946 753.9263,-363.0612 752.1279,-363.692 750.297,-364.2853 748.4379,-364.8394 746.5545,-365.3528 744.65,-365.8241 742.7278,-366.2521 740.7906,-366.6355 738.841,-366.9734 736.8811,-367.2647 734.9131,-367.5087 732.9387,-367.7047 730.9595,-367.8521 728.977,-367.9507 726.9925,-368 725.0075,-368 723.023,-367.9507 721.0405,-367.8521 719.0613,-367.7047 717.0869,-367.5087 715.1189,-367.2647 713.159,-366.9734 711.2094,-366.6355 709.2722,-366.2521 707.35,-365.8241 705.4455,-365.3528 703.5621,-364.8394 701.703,-364.2853 699.8721,-363.692 698.0737,-363.0612 696.3121,-362.3946 694.5922,-361.6941 692.9191,-360.9615 691.2983,-360.1988 689.7356,-359.4082 688.2369,-358.5918 686.8083,-357.7519 685.4563,-356.8907 684.1873,-356.0106 683.0079,-355.114 681.9248,-354.2035 680.9444,-353.2814 680.0732,-352.3503 679.3177,-351.4127 678.6839,-350.4713 678.1777,-349.5287 677.8047,-348.5873 677.5699,-347.6497 677.4782,-346.7186 677.5338,-345.7965 677.7402,-344.886 678.1005,-343.9894 678.6171,-343.1093 679.2917,-342.2481 680.1252,-341.4082 681.1178,-340.5918 682.2687,-339.8012 683.5767,-339.0385 685.0392,-338.3059 686.6533,-337.6054 688.4149,-336.9388 690.3192,-336.308 692.3606,-335.7147 694.5325,-335.1606 696.8277,-334.6472 699.2383,-334.1759 701.7556,-333.7479 704.3702,-333.3645 707.0722,-333.0266 709.8511,-332.7353 712.6959,-332.4913 715.5952,-332.2953 718.5372,-332.1479 721.51,-332.0493 724.5013,-332 727.4987,-332 730.49,-332.0493"/>
<text text-anchor="middle" x="726" y="-346.4" font-family="Times,serif" font-size="12.00" fill="#000000">global-tests</text>
</g>
<!-- node1&#45;&gt;node1 -->
<g id="edge12" class="edge">
<title>node1-&gt;node1</title>
<path fill="none" stroke="#000000" d="M766.9178,-356.7484C781.0766,-356.8198 792.5109,-354.5703 792.5109,-350 792.5109,-347.5676 789.2721,-345.7926 784.1076,-344.675"/>
<polygon fill="#000000" stroke="#000000" points="784.1815,-341.158 773.8298,-343.4148 783.3295,-348.1059 784.1815,-341.158"/>
</g>
<!-- node2 -->
<g id="node11" class="node">
<title>node2</title>
<polygon fill="none" stroke="#000000" points="1016.2039,-265.5442 1016.2039,-280.4558 973.9078,-291 914.0922,-291 871.7961,-280.4558 871.7961,-265.5442 914.0922,-255 973.9078,-255 1016.2039,-265.5442"/>
<polygon fill="none" stroke="#000000" points="1020.196,-262.4174 1020.196,-283.5826 974.397,-295 913.603,-295 867.804,-283.5826 867.804,-262.4174 913.603,-251 974.397,-251 1020.196,-262.4174"/>
<text text-anchor="middle" x="944" y="-269.4" font-family="Times,serif" font-size="12.00" fill="#000000">GTest::gtest_main</text>
</g>
<!-- node1&#45;&gt;node2 -->
<g id="edge11" class="edge">
<title>node1-&gt;node2</title>
<path fill="none" stroke="#000000" stroke-dasharray="1,5" d="M763.4755,-336.7632C796.919,-324.9506 846.446,-307.4571 885.1687,-293.7799"/>
<polygon fill="#000000" stroke="#000000" points="886.5009,-297.0213 894.7643,-290.3906 884.1695,-290.4209 886.5009,-297.0213"/>
</g>
<!-- node5 -->
<g id="node14" class="node">
<title>node5</title>
<polygon fill="none" stroke="#000000" points="736.7115,-265.5442 736.7115,-280.4558 706.4196,-291 663.5804,-291 633.2885,-280.4558 633.2885,-265.5442 663.5804,-255 706.4196,-255 736.7115,-265.5442"/>
<text text-anchor="middle" x="685" y="-269.4" font-family="Times,serif" font-size="12.00" fill="#000000">romz-global</text>
</g>
<!-- node1&#45;&gt;node5 -->
<g id="edge13" class="edge">
<title>node1-&gt;node5</title>
<path fill="none" stroke="#000000" stroke-dasharray="1,5" d="M716.4907,-332.1411C711.4043,-322.5886 705.0363,-310.6292 699.3602,-299.9691"/>
<polygon fill="#000000" stroke="#000000" points="702.3891,-298.2105 694.5997,-291.0288 696.2104,-301.5005 702.3891,-298.2105"/>
</g>
<!-- node3 -->
<g id="node12" class="node">
<title>node3</title>
<polygon fill="none" stroke="#000000" points="1002.7135,-180.5442 1002.7135,-195.4558 972.4204,-206 929.5796,-206 899.2865,-195.4558 899.2865,-180.5442 929.5796,-170 972.4204,-170 1002.7135,-180.5442"/>
<polygon fill="none" stroke="#000000" points="1006.7214,-177.7029 1006.7214,-198.2971 973.0993,-210 928.9007,-210 895.2786,-198.2971 895.2786,-177.7029 928.9007,-166 973.0993,-166 1006.7214,-177.7029"/>
<text text-anchor="middle" x="951" y="-184.4" font-family="Times,serif" font-size="12.00" fill="#000000">GTest::gtest</text>
</g>
<!-- node2&#45;&gt;node3 -->
<g id="edge9" class="edge">
<title>node2-&gt;node3</title>
<path fill="none" stroke="#000000" stroke-dasharray="5,2" d="M945.8392,-250.6673C946.6028,-241.3946 947.5037,-230.4546 948.3374,-220.3322"/>
<polygon fill="#000000" stroke="#000000" points="951.8405,-220.4372 949.1731,-210.1836 944.8641,-219.8626 951.8405,-220.4372"/>
</g>
<!-- node4 -->
<g id="node13" class="node">
<title>node4</title>
<polygon fill="none" stroke="#000000" points="972.8347,-112.5623 894,-125 815.1653,-112.5623 845.2775,-92.4377 942.7225,-92.4377 972.8347,-112.5623"/>
<text text-anchor="middle" x="894" y="-103.4" font-family="Times,serif" font-size="12.00" fill="#000000">Threads::Threads</text>
</g>
<!-- node2&#45;&gt;node4 -->
<g id="edge10" class="edge">
<title>node2-&gt;node4</title>
<path fill="none" stroke="#000000" stroke-dasharray="5,2" d="M913.8428,-250.7611C902.9082,-240.865 891.8208,-228.2242 886,-214 875.5243,-188.4005 879.8921,-156.5003 885.4087,-134.2207"/>
<polygon fill="#000000" stroke="#000000" points="888.8265,-134.9897 888.0618,-124.4225 882.0698,-133.1602 888.8265,-134.9897"/>
</g>
<!-- node3&#45;&gt;node4 -->
<g id="edge8" class="edge">
<title>node3-&gt;node4</title>
<path fill="none" stroke="#000000" stroke-dasharray="5,2" d="M935.4245,-165.8664C927.9859,-155.2957 919.0569,-142.6072 911.3965,-131.7214"/>
<polygon fill="#000000" stroke="#000000" points="914.195,-129.6164 905.5777,-123.4526 908.4704,-133.6449 914.195,-129.6164"/>
</g>
<!-- node6 -->
<g id="node15" class="node">
<title>node6</title>
<polygon fill="none" stroke="#000000" points="1145.6825,-332.0493 1147.4586,-332.1479 1149.2163,-332.2953 1150.9484,-332.4913 1152.648,-332.7353 1154.3083,-333.0266 1155.9225,-333.3645 1157.4846,-333.7479 1158.9886,-334.1759 1160.4288,-334.6472 1161.8,-335.1606 1163.0976,-335.7147 1164.3172,-336.308 1165.4549,-336.9388 1166.5074,-337.6054 1167.4717,-338.3059 1168.3455,-339.0385 1169.1269,-339.8012 1169.8146,-340.5918 1170.4075,-341.4082 1170.9055,-342.2481 1171.3085,-343.1093 1171.6172,-343.9894 1171.8325,-344.886 1171.9558,-345.7965 1171.989,-346.7186 1171.9342,-347.6497 1171.7939,-348.5873 1171.5711,-349.5287 1171.2687,-350.4713 1170.89,-351.4127 1170.4386,-352.3503 1169.9181,-353.2814 1169.3324,-354.2035 1168.6853,-355.114 1167.9807,-356.0106 1167.2225,-356.8907 1166.4148,-357.7519 1165.5613,-358.5918 1164.6659,-359.4082 1163.7323,-360.1988 1162.7639,-360.9615 1161.7644,-361.6941 1160.7368,-362.3946 1159.6844,-363.0612 1158.6099,-363.692 1157.5161,-364.2853 1156.4054,-364.8394 1155.2801,-365.3528 1154.1423,-365.8241 1152.9939,-366.2521 1151.8365,-366.6355 1150.6717,-366.9734 1149.5009,-367.2647 1148.3251,-367.5087 1147.1455,-367.7047 1145.963,-367.8521 1144.7786,-367.9507 1143.593,-368 1142.407,-368 1141.2214,-367.9507 1140.037,-367.8521 1138.8545,-367.7047 1137.6749,-367.5087 1136.4991,-367.2647 1135.3283,-366.9734 1134.1635,-366.6355 1133.0061,-366.2521 1131.8577,-365.8241 1130.7199,-365.3528 1129.5946,-364.8394 1128.4839,-364.2853 1127.3901,-363.692 1126.3156,-363.0612 1125.2632,-362.3946 1124.2356,-361.6941 1123.2361,-360.9615 1122.2677,-360.1988 1121.3341,-359.4082 1120.4387,-358.5918 1119.5852,-357.7519 1118.7775,-356.8907 1118.0193,-356.0106 1117.3147,-355.114 1116.6676,-354.2035 1116.0819,-353.2814 1115.5614,-352.3503 1115.11,-351.4127 1114.7313,-350.4713 1114.4289,-349.5287 1114.2061,-348.5873 1114.0658,-347.6497 1114.011,-346.7186 1114.0442,-345.7965 1114.1675,-344.886 1114.3828,-343.9894 1114.6915,-343.1093 1115.0945,-342.2481 1115.5925,-341.4082 1116.1854,-340.5918 1116.8731,-339.8012 1117.6545,-339.0385 1118.5283,-338.3059 1119.4926,-337.6054 1120.5451,-336.9388 1121.6828,-336.308 1122.9024,-335.7147 1124.2,-335.1606 1125.5712,-334.6472 1127.0114,-334.1759 1128.5154,-333.7479 1130.0775,-333.3645 1131.6917,-333.0266 1133.352,-332.7353 1135.0516,-332.4913 1136.7837,-332.2953 1138.5414,-332.1479 1140.3175,-332.0493 1142.1046,-332 1143.8954,-332 1145.6825,-332.0493"/>
<text text-anchor="middle" x="1143" y="-346.4" font-family="Times,serif" font-size="12.00" fill="#000000">hello</text>
</g>
<!-- node7 -->
<g id="node16" class="node">
<title>node7</title>
<polygon fill="none" stroke="#000000" points="878.1049,-332.0493 880.8227,-332.1479 883.5124,-332.2953 886.1629,-332.4913 888.7637,-332.7353 891.3042,-333.0266 893.7745,-333.3645 896.1648,-333.7479 898.4662,-334.1759 900.67,-334.6472 902.7684,-335.1606 904.754,-335.7147 906.6202,-336.308 908.3612,-336.9388 909.9717,-337.6054 911.4473,-338.3059 912.7845,-339.0385 913.9802,-339.8012 915.0324,-340.5918 915.9398,-341.4082 916.7018,-342.2481 917.3186,-343.1093 917.7909,-343.9894 918.1203,-344.886 918.309,-345.7965 918.3598,-346.7186 918.2759,-347.6497 918.0614,-348.5873 917.7203,-349.5287 917.2575,-350.4713 916.6781,-351.4127 915.9874,-352.3503 915.1909,-353.2814 914.2946,-354.2035 913.3044,-355.114 912.2262,-356.0106 911.066,-356.8907 909.83,-357.7519 908.524,-358.5918 907.1538,-359.4082 905.7251,-360.1988 904.2434,-360.9615 902.7138,-361.6941 901.1414,-362.3946 899.5309,-363.0612 897.8867,-363.692 896.2129,-364.2853 894.5133,-364.8394 892.7914,-365.3528 891.0503,-365.8241 889.293,-366.2521 887.5219,-366.6355 885.7395,-366.9734 883.9478,-367.2647 882.1486,-367.5087 880.3435,-367.7047 878.5341,-367.8521 876.7216,-367.9507 874.9074,-368 873.0926,-368 871.2784,-367.9507 869.4659,-367.8521 867.6565,-367.7047 865.8514,-367.5087 864.0522,-367.2647 862.2605,-366.9734 860.4781,-366.6355 858.707,-366.2521 856.9497,-365.8241 855.2086,-365.3528 853.4867,-364.8394 851.7871,-364.2853 850.1133,-363.692 848.4691,-363.0612 846.8586,-362.3946 845.2862,-361.6941 843.7566,-360.9615 842.2749,-360.1988 840.8462,-359.4082 839.476,-358.5918 838.17,-357.7519 836.934,-356.8907 835.7738,-356.0106 834.6956,-355.114 833.7054,-354.2035 832.8091,-353.2814 832.0126,-352.3503 831.3219,-351.4127 830.7425,-350.4713 830.2797,-349.5287 829.9386,-348.5873 829.7241,-347.6497 829.6402,-346.7186 829.691,-345.7965 829.8797,-344.886 830.2091,-343.9894 830.6814,-343.1093 831.2982,-342.2481 832.0602,-341.4082 832.9676,-340.5918 834.0198,-339.8012 835.2155,-339.0385 836.5527,-338.3059 838.0283,-337.6054 839.6388,-336.9388 841.3798,-336.308 843.246,-335.7147 845.2316,-335.1606 847.33,-334.6472 849.5338,-334.1759 851.8352,-333.7479 854.2255,-333.3645 856.6958,-333.0266 859.2363,-332.7353 861.8371,-332.4913 864.4876,-332.2953 867.1773,-332.1479 869.8951,-332.0493 872.6298,-332 875.3702,-332 878.1049,-332.0493"/>
<text text-anchor="middle" x="874" y="-346.4" font-family="Times,serif" font-size="12.00" fill="#000000">math-tests</text>
</g>
<!-- node7&#45;&gt;node2 -->
<g id="edge14" class="edge">
<title>node7-&gt;node2</title>
<path fill="none" stroke="#000000" stroke-dasharray="1,5" d="M889.8841,-332.5275C897.9201,-323.6879 907.8956,-312.7149 917.0846,-302.607"/>
<polygon fill="#000000" stroke="#000000" points="919.776,-304.8495 923.913,-295.0957 914.5964,-300.1408 919.776,-304.8495"/>
</g>
<!-- node7&#45;&gt;node7 -->
<g id="edge15" class="edge">
<title>node7-&gt;node7</title>
<path fill="none" stroke="#000000" d="M911.483,-356.7397C925.1961,-356.9223 936.4298,-354.6758 936.4298,-350 936.4298,-347.3929 932.9375,-345.5411 927.4703,-344.4444"/>
<polygon fill="#000000" stroke="#000000" points="927.7946,-340.9591 917.4714,-343.3427 927.0279,-347.9169 927.7946,-340.9591"/>
</g>
<!-- node8 -->
<g id="node17" class="node">
<title>node8</title>
<polygon fill="none" stroke="#000000" points="849.4154,-265.5442 849.4154,-280.4558 821.6401,-291 782.3599,-291 754.5846,-280.4558 754.5846,-265.5442 782.3599,-255 821.6401,-255 849.4154,-265.5442"/>
<text text-anchor="middle" x="802" y="-269.4" font-family="Times,serif" font-size="12.00" fill="#000000">romz-math</text>
</g>
<!-- node7&#45;&gt;node8 -->
<g id="edge16" class="edge">
<title>node7-&gt;node8</title>
<path fill="none" stroke="#000000" stroke-dasharray="1,5" d="M857.6621,-332.5275C848.2905,-322.5051 836.3545,-309.7402 825.9407,-298.6032"/>
<polygon fill="#000000" stroke="#000000" points="828.411,-296.1205 819.0245,-291.2068 823.298,-300.9015 828.411,-296.1205"/>
</g>
<!-- node9 -->
<g id="node18" class="node">
<title>node9</title>
<polygon fill="none" stroke="#000000" points="1029.912,-332.0493 1033.1641,-332.1479 1036.3827,-332.2953 1039.5544,-332.4913 1042.6665,-332.7353 1045.7066,-333.0266 1048.6625,-333.3645 1051.5228,-333.7479 1054.2767,-334.1759 1056.9138,-334.6472 1059.4248,-335.1606 1061.8008,-335.7147 1064.034,-336.308 1066.1172,-336.9388 1068.0444,-337.6054 1069.8102,-338.3059 1071.4102,-339.0385 1072.841,-339.8012 1074.1002,-340.5918 1075.186,-341.4082 1076.0978,-342.2481 1076.8358,-343.1093 1077.401,-343.9894 1077.7951,-344.886 1078.021,-345.7965 1078.0817,-346.7186 1077.9814,-347.6497 1077.7246,-348.5873 1077.3165,-349.5287 1076.7628,-350.4713 1076.0694,-351.4127 1075.2428,-352.3503 1074.2898,-353.2814 1073.2173,-354.2035 1072.0323,-355.114 1070.7421,-356.0106 1069.3539,-356.8907 1067.8748,-357.7519 1066.312,-358.5918 1064.6725,-359.4082 1062.9628,-360.1988 1061.1898,-360.9615 1059.3595,-361.6941 1057.4779,-362.3946 1055.5508,-363.0612 1053.5833,-363.692 1051.5804,-364.2853 1049.5466,-364.8394 1047.4861,-365.3528 1045.4027,-365.8241 1043.2998,-366.2521 1041.1806,-366.6355 1039.0477,-366.9734 1036.9037,-367.2647 1034.7508,-367.5087 1032.5908,-367.7047 1030.4256,-367.8521 1028.2568,-367.9507 1026.0858,-368 1023.9142,-368 1021.7432,-367.9507 1019.5744,-367.8521 1017.4092,-367.7047 1015.2492,-367.5087 1013.0963,-367.2647 1010.9523,-366.9734 1008.8194,-366.6355 1006.7002,-366.2521 1004.5973,-365.8241 1002.5139,-365.3528 1000.4534,-364.8394 998.4196,-364.2853 996.4167,-363.692 994.4492,-363.0612 992.5221,-362.3946 990.6405,-361.6941 988.8102,-360.9615 987.0372,-360.1988 985.3275,-359.4082 983.688,-358.5918 982.1252,-357.7519 980.6461,-356.8907 979.2579,-356.0106 977.9677,-355.114 976.7827,-354.2035 975.7102,-353.2814 974.7572,-352.3503 973.9306,-351.4127 973.2372,-350.4713 972.6835,-349.5287 972.2754,-348.5873 972.0186,-347.6497 971.9183,-346.7186 971.979,-345.7965 972.2049,-344.886 972.599,-343.9894 973.1642,-343.1093 973.9022,-342.2481 974.814,-341.4082 975.8998,-340.5918 977.159,-339.8012 978.5898,-339.0385 980.1898,-338.3059 981.9556,-337.6054 983.8828,-336.9388 985.966,-336.308 988.1992,-335.7147 990.5752,-335.1606 993.0862,-334.6472 995.7233,-334.1759 998.4772,-333.7479 1001.3375,-333.3645 1004.2934,-333.0266 1007.3335,-332.7353 1010.4456,-332.4913 1013.6173,-332.2953 1016.8359,-332.1479 1020.088,-332.0493 1023.3604,-332 1026.6396,-332 1029.912,-332.0493"/>
<text text-anchor="middle" x="1025" y="-346.4" font-family="Times,serif" font-size="12.00" fill="#000000">random-tests</text>
</g>
<!-- node9&#45;&gt;node2 -->
<g id="edge17" class="edge">
<title>node9-&gt;node2</title>
<path fill="none" stroke="#000000" stroke-dasharray="1,5" d="M1006.6198,-332.5275C997.1387,-323.5145 985.3244,-312.2837 974.5206,-302.0134"/>
<polygon fill="#000000" stroke="#000000" points="976.9028,-299.4489 967.2436,-295.0957 972.0799,-304.5223 976.9028,-299.4489"/>
</g>
<!-- node9&#45;&gt;node9 -->
<g id="edge18" class="edge">
<title>node9-&gt;node9</title>
<path fill="none" stroke="#000000" d="M1069.7469,-356.7496C1084.385,-356.7147 1096.0408,-354.4648 1096.0408,-350 1096.0408,-347.6006 1092.6746,-345.8409 1087.2883,-344.7208"/>
<polygon fill="#000000" stroke="#000000" points="1087.71,-341.2464 1077.3549,-343.4873 1086.8473,-348.193 1087.71,-341.2464"/>
</g>
<!-- node10 -->
<g id="node19" class="node">
<title>node10</title>
<polygon fill="none" stroke="#000000" points="1151.4205,-265.5442 1151.4205,-280.4558 1118.3701,-291 1071.6299,-291 1038.5795,-280.4558 1038.5795,-265.5442 1071.6299,-255 1118.3701,-255 1151.4205,-265.5442"/>
<text text-anchor="middle" x="1095" y="-269.4" font-family="Times,serif" font-size="12.00" fill="#000000">romz-random</text>
</g>
<!-- node9&#45;&gt;node10 -->
<g id="edge21" class="edge">
<title>node9-&gt;node10</title>
<path fill="none" stroke="#000000" stroke-dasharray="1,5" d="M1040.8841,-332.5275C1049.9078,-322.6015 1061.3769,-309.9854 1071.4319,-298.9249"/>
<polygon fill="#000000" stroke="#000000" points="1074.3114,-300.9606 1078.4484,-291.2068 1069.1318,-296.2518 1074.3114,-300.9606"/>
</g>
<!-- node11 -->
<g id="node20" class="node">
<title>node11</title>
<polygon fill="none" stroke="#000000" points="1158.6088,-183.9946 1146.0103,-199.2228 1095,-206 1043.9897,-199.2228 1031.3912,-183.9946 1066.6914,-171.7826 1123.3086,-171.7826 1158.6088,-183.9946"/>
<text text-anchor="middle" x="1095" y="-184.4" font-family="Times,serif" font-size="12.00" fill="#000000">OpenSSL::SSL</text>
</g>
<!-- node10&#45;&gt;node11 -->
<g id="edge20" class="edge">
<title>node10-&gt;node11</title>
<path fill="none" stroke="#000000" d="M1095,-254.9737C1095,-243.7043 1095,-228.9524 1095,-216.1627"/>
<polygon fill="#000000" stroke="#000000" points="1098.5001,-216.0003 1095,-206.0003 1091.5001,-216.0004 1098.5001,-216.0003"/>
</g>
<!-- node12 -->
<g id="node21" class="node">
<title>node12</title>
<polygon fill="none" stroke="#000000" points="1167.5583,-102.9946 1153.1873,-118.2228 1095,-125 1036.8127,-118.2228 1022.4417,-102.9946 1062.7085,-90.7826 1127.2915,-90.7826 1167.5583,-102.9946"/>
<text text-anchor="middle" x="1095" y="-103.4" font-family="Times,serif" font-size="12.00" fill="#000000">OpenSSL::Crypto</text>
</g>
<!-- node11&#45;&gt;node12 -->
<g id="edge19" class="edge">
<title>node11-&gt;node12</title>
<path fill="none" stroke="#000000" stroke-dasharray="5,2" d="M1095,-171.6084C1095,-161.1683 1095,-147.3676 1095,-135.2023"/>
<polygon fill="#000000" stroke="#000000" points="1098.5001,-135.0582 1095,-125.0583 1091.5001,-135.0583 1098.5001,-135.0582"/>
</g>
</g>
</svg>